<svg width="34" height="34" viewBox="0 0 34 34" fill="none" xmlns="http://www.w3.org/2000/svg">
<path d="M17 33C12.7565 33 8.68688 31.3143 5.68629 28.3137C2.68571 25.3131 1 21.2435 1 17C1 12.7565 2.68571 8.68688 5.68629 5.68629C8.68688 2.68571 12.7565 1 17 1C21.2435 1 25.3131 2.68571 28.3137 5.68629C31.3143 8.68688 33 12.7565 33 17C33 21.2435 31.3143 25.3131 28.3137 28.3137C25.3131 31.3143 21.2435 33 17 33Z" stroke="#FAFAFA" stroke-miterlimit="10"/>
<path d="M16.9999 10.624C19.0769 10.624 19.3229 10.632 20.1429 10.669C20.6361 10.6747 21.1246 10.7654 21.5869 10.937C21.9225 11.0663 22.2273 11.2645 22.4816 11.5187C22.736 11.7729 22.9344 12.0775 23.0639 12.413C23.2355 12.8754 23.3262 13.3638 23.3319 13.857C23.3689 14.677 23.3769 14.923 23.3769 17C23.3769 19.077 23.3689 19.323 23.3319 20.143C23.3262 20.6362 23.2356 21.1246 23.0639 21.587C22.9345 21.9227 22.7363 22.2275 22.4819 22.4819C22.2275 22.7363 21.9226 22.9346 21.5869 23.064C21.1246 23.2356 20.6361 23.3263 20.1429 23.332C19.3229 23.369 19.0769 23.377 16.9999 23.377C14.9229 23.377 14.6769 23.369 13.8569 23.332C13.3638 23.3263 12.8753 23.2356 12.4129 23.064C12.0773 22.9346 11.7724 22.7363 11.518 22.4819C11.2636 22.2275 11.0653 21.9227 10.9359 21.587C10.7647 21.1245 10.674 20.6361 10.6679 20.143C10.6309 19.323 10.6229 19.077 10.6229 17C10.6229 14.923 10.6309 14.677 10.6679 13.857C10.674 13.3639 10.7647 12.8755 10.9359 12.413C11.0655 12.0775 11.2639 11.7729 11.5182 11.5187C11.7726 11.2645 12.0774 11.0663 12.4129 10.937C12.8753 10.7654 13.3638 10.6747 13.8569 10.669C14.6769 10.631 14.9229 10.624 16.9999 10.624ZM16.9999 9.224C14.8879 9.224 14.6229 9.233 13.7929 9.271C13.1477 9.28427 12.5093 9.40666 11.9049 9.633C11.3881 9.83265 10.9187 10.1382 10.5269 10.53C10.1351 10.9218 9.8296 11.3912 9.62994 11.908C9.40348 12.5124 9.28108 13.1507 9.26794 13.796C9.22994 14.626 9.22095 14.89 9.22095 17.003C9.22095 19.116 9.22994 19.38 9.26794 20.21C9.28124 20.8553 9.40363 21.4936 9.62994 22.098C9.82949 22.615 10.135 23.0846 10.5268 23.4766C10.9186 23.8685 11.388 24.1742 11.9049 24.374C12.5093 24.6005 13.1477 24.7229 13.7929 24.736C14.6229 24.774 14.8869 24.783 16.9999 24.783C19.1129 24.783 19.3769 24.774 20.2069 24.736C20.8522 24.7227 21.4905 24.6003 22.0949 24.374C22.6118 24.174 23.0811 23.8683 23.4729 23.4763C23.8646 23.0844 24.1702 22.6149 24.3699 22.098C24.5964 21.4936 24.7188 20.8553 24.7319 20.21C24.7699 19.38 24.7789 19.116 24.7789 17.003C24.7789 14.89 24.7699 14.626 24.7319 13.796C24.7186 13.1508 24.5962 12.5124 24.3699 11.908C24.1701 11.3913 23.8645 10.922 23.4727 10.5302C23.0809 10.1385 22.6117 9.83287 22.0949 9.633C21.4906 9.4065 20.8522 9.2841 20.2069 9.271C19.3769 9.233 19.1069 9.224 16.9999 9.224Z" fill="#FAFAFA"/>
<path d="M16.9999 13.006C16.2097 13.0058 15.4372 13.2399 14.7801 13.6788C14.123 14.1176 13.6108 14.7415 13.3083 15.4715C13.0058 16.2015 12.9265 17.0047 13.0805 17.7798C13.2346 18.5548 13.615 19.2667 14.1737 19.8255C14.7323 20.3843 15.4442 20.7649 16.2192 20.9192C16.9941 21.0734 17.7974 20.9943 18.5275 20.692C19.2575 20.3896 19.8815 19.8776 20.3206 19.2206C20.7596 18.5636 20.9939 17.7912 20.9939 17.001C20.9939 15.9416 20.5731 14.9256 19.8241 14.1765C19.0752 13.4273 18.0593 13.0062 16.9999 13.006ZM16.9999 19.593C16.4871 19.593 15.9857 19.4409 15.5593 19.156C15.1329 18.8711 14.8005 18.4661 14.6043 17.9923C14.408 17.5185 14.3567 16.9971 14.4567 16.4941C14.5568 15.9911 14.8037 15.5291 15.1664 15.1665C15.529 14.8038 15.991 14.5569 16.494 14.4568C16.997 14.3568 17.5184 14.4081 17.9922 14.6044C18.466 14.8006 18.871 15.133 19.1559 15.5594C19.4408 15.9858 19.5929 16.4871 19.5929 17C19.5929 17.6877 19.3197 18.3472 18.8334 18.8335C18.3472 19.3198 17.6876 19.593 16.9999 19.593Z" fill="#FAFAFA"/>
<path d="M22.09 12.848C22.09 13.0325 22.0353 13.2129 21.9328 13.3663C21.8302 13.5198 21.6845 13.6394 21.514 13.71C21.3436 13.7806 21.156 13.7991 20.975 13.7631C20.794 13.7271 20.6278 13.6382 20.4973 13.5077C20.3668 13.3773 20.2779 13.211 20.2419 13.03C20.2059 12.849 20.2244 12.6615 20.295 12.491C20.3656 12.3205 20.4852 12.1748 20.6387 12.0723C20.7921 11.9697 20.9725 11.915 21.157 11.915C21.4045 11.915 21.6418 12.0133 21.8167 12.1883C21.9917 12.3632 22.09 12.6006 22.09 12.848Z" fill="#FAFAFA"/>
</svg>
