<svg width="1024" height="1024" viewBox="0 0 1024 1024" fill="none" xmlns="http://www.w3.org/2000/svg"><path d="M620.759 778.606v125.857l-108.792 62.573V841.89z" fill="#CD182C"/><path d="M511.967 841.271v125.146l-108.792-62.573V777.987z" fill="#2B2B2B"/><path d="M620.758 778.606 511.967 841.89l-108.792-63.284 108.792-62.573z" fill="#FAFAFA"/><path d="M967.037 418.435v125.146l-108.792 63.284V481.008z" fill="#CD182C"/><path d="M858.956 481.115v125.857l-108.792-63.284V418.542z" fill="#2B2B2B"/><path d="m967.036 418.435-108.791 62.573-108.792-62.573 108.792-63.284z" fill="#FAFAFA"/><path d="M793.894 503.463V629.32l-108.792 62.573V566.036z" fill="#CD182C"/><path d="M685.102 566.128v125.857L576.31 629.412V503.555z" fill="#2B2B2B"/><path d="m793.893 503.463-108.791 62.573-108.792-62.573 108.792-62.573z" fill="#FAFAFA"/><path d="M620.76 588.477v125.857l-108.792 62.573V651.761z" fill="#CD182C"/><path d="M511.968 651.853v125.146l-108.081-62.573V588.569z" fill="#2B2B2B"/><path d="m620.759 588.477-108.791 63.284-108.081-63.284 108.081-62.573z" fill="#FAFAFA"/><path d="M447.61 674.145v125.146l-108.792 62.573V736.718z" fill="#CD182C"/><path d="M338.818 736.825v125.146l-108.792-62.573V674.252z" fill="#2B2B2B"/><path d="m447.609 674.145-108.791 62.573-108.792-62.573 108.792-63.284z" fill="#FAFAFA"/><path d="M274.468 759.215v125.146l-108.792 63.284V821.788z" fill="#CD182C"/><path d="M165.676 821.88v125.857L56.884 884.453V759.307z" fill="#2B2B2B"/><path d="m274.467 759.215-108.791 62.573-108.792-62.573 108.792-62.573z" fill="#FAFAFA"/><path d="M967.037 138.847v125.146l-108.792 63.284V202.131z" fill="#CD182C"/><path d="M858.956 201.527v125.857L750.164 264.1V138.954z" fill="#2B2B2B"/><path d="m967.036 138.847-108.08 63.284-108.792-62.573 108.792-63.284z" fill="#FAFAFA"/><path d="M793.894 224.629v125.857l-108.792 61.862V287.202z" fill="#CD182C"/><path d="M685.102 287.294v125.857L576.31 350.578V224.01z" fill="#2B2B2B"/><path d="m793.893 224.629-108.791 62.573-108.792-62.573 108.792-62.573z" fill="#FAFAFA"/><path d="M620.759 309.593V435.45l-108.792 62.573V372.166z" fill="#CD182C"/><path d="M511.967 372.258v125.146l-108.792-62.573V309.685z" fill="#2B2B2B"/><path d="m620.758 309.593-108.791 63.284-108.792-63.284 108.792-62.573z" fill="#FAFAFA"/><path d="M447.61 395.311v125.146L338.818 583.03V457.884z" fill="#CD182C"/><path d="M338.818 457.28v125.146l-108.792-62.573V394.707z" fill="#2B2B2B"/><path d="m447.609 395.311-108.791 62.573-108.792-62.573 108.792-63.284z" fill="#FAFAFA"/><path d="M274.468 480.339v125.146l-108.792 63.284V542.912z" fill="#CD182C"/><path d="M165.676 543.004v125.857L56.884 605.577V480.431z" fill="#2B2B2B"/><path d="m274.467 480.339-108.791 62.573-108.792-62.573 108.792-62.573z" fill="#FAFAFA"/><path d="M620.759 119.457v125.857l-108.792 62.573V182.741z" fill="#CD182C"/><path d="M511.967 182.833v125.146l-108.792-62.573V119.549z" fill="#2B2B2B"/><path d="m620.758 119.457-108.791 63.284-108.792-63.284 108.792-62.573z" fill="#FAFAFA"/></svg>