<svg width="34" height="34" viewBox="0 0 34 34" fill="none" xmlns="http://www.w3.org/2000/svg">
<path d="M17 33C12.7565 33 8.68686 31.3143 5.68628 28.3137C2.6857 25.3131 1 21.2435 1 17C1 12.7565 2.6857 8.68689 5.68628 5.68631C8.68686 2.68573 12.7565 1 17 1C21.2435 1 25.3131 2.68573 28.3137 5.68631C31.3143 8.68689 33 12.7565 33 17C33 21.2435 31.3143 25.3131 28.3137 28.3137C25.3131 31.3143 21.2435 33 17 33Z" stroke="#FAFAFA" stroke-miterlimit="10"/>
<path d="M14.882 22.065C15.2592 21.9917 15.6166 21.8398 15.9312 21.6193C16.2458 21.3988 16.5105 21.1145 16.708 20.785C17.0048 20.3102 17.1583 19.7599 17.1501 19.2C17.1656 18.6878 17.0315 18.1822 16.764 17.745C16.4902 17.3326 16.086 17.0238 15.6161 16.868C15.9042 16.7322 16.162 16.5397 16.3741 16.302C16.6969 15.8848 16.8601 15.3659 16.834 14.839C16.8484 14.2974 16.6882 13.7656 16.377 13.322C16.0629 12.9539 15.6655 12.666 15.2179 12.482C14.7703 12.298 14.2853 12.2233 13.803 12.264H9.00305V22.198H13.48C13.9507 22.2023 14.4206 22.1577 14.882 22.065ZM10.9821 13.992H13.143C13.5402 13.9811 13.9365 14.0337 14.317 14.1481C14.4927 14.223 14.6396 14.3526 14.7358 14.5176C14.832 14.6826 14.8724 14.8742 14.851 15.064C14.8693 15.2321 14.8418 15.402 14.7714 15.5557C14.701 15.7094 14.5903 15.8411 14.451 15.937C14.1299 16.1138 13.7663 16.1989 13.4001 16.183H10.9831V13.989L10.9821 13.992ZM10.9821 20.475V17.827H13.4271C13.766 17.8151 14.1039 17.8723 14.42 17.995C14.6234 18.0845 14.7936 18.2352 14.9071 18.4261C15.0206 18.6171 15.0716 18.8387 15.053 19.06C15.0804 19.3083 15.0329 19.5591 14.9165 19.7801C14.8001 20.0011 14.6202 20.1821 14.4001 20.3C14.0817 20.4318 13.7382 20.4915 13.394 20.475H10.9821Z" fill="#FAFAFA"/>
<path d="M18.833 21.545C19.5625 22.1401 20.4786 22.4588 21.42 22.445C21.9305 22.475 22.4414 22.3947 22.9182 22.2098C23.3949 22.0248 23.8263 21.7394 24.183 21.373C24.5571 21.0184 24.8071 20.5528 24.896 20.045H22.935C22.8367 20.237 22.7007 20.407 22.535 20.545C22.2308 20.7801 21.853 20.8995 21.469 20.882C21.0969 20.8929 20.7295 20.7971 20.41 20.606C20.1593 20.4356 19.9568 20.2035 19.8221 19.9319C19.6874 19.6604 19.625 19.3587 19.641 19.0561H24.991C25.0079 18.5695 24.9869 18.0823 24.928 17.5991C24.8515 17.0547 24.6514 16.5351 24.343 16.08C24.0322 15.6043 23.5919 15.2271 23.074 14.993C22.5293 14.757 21.9406 14.6397 21.347 14.649C20.8627 14.6302 20.3797 14.7109 19.9278 14.8862C19.476 15.0614 19.0649 15.3276 18.72 15.6681C18.3635 16.0651 18.0906 16.5298 17.9176 17.0346C17.7446 17.5394 17.675 18.0738 17.713 18.606C17.662 19.149 17.7364 19.6964 17.9306 20.206C18.1248 20.7156 18.4336 21.1738 18.833 21.545ZM20.205 16.661C20.3569 16.516 20.537 16.4039 20.7342 16.3318C20.9314 16.2597 21.1414 16.2292 21.351 16.242C21.7673 16.2303 22.1733 16.3727 22.491 16.6421C22.651 16.7904 22.7789 16.97 22.867 17.1696C22.955 17.3693 23.0013 17.5848 23.003 17.803H19.694C19.7378 17.3775 19.9169 16.9773 20.205 16.661Z" fill="#FAFAFA"/>
<path d="M23.385 12.837H19.068V13.84H23.385V12.837Z" fill="#FAFAFA"/>
</svg>
