<svg width="34" height="34" viewBox="0 0 34 34" fill="none" xmlns="http://www.w3.org/2000/svg">
<path d="M17 33C12.7565 33 8.68686 31.3143 5.68628 28.3137C2.6857 25.3131 1 21.2435 1 17C1 12.7565 2.6857 8.68687 5.68628 5.68629C8.68686 2.68571 12.7565 1 17 1C19.1012 1 21.1817 1.41385 23.1229 2.21793C25.0641 3.022 26.828 4.20055 28.3137 5.68629C29.7994 7.17203 30.978 8.93585 31.7821 10.8771C32.5861 12.8183 33 14.8988 33 17C33 19.1011 32.5861 21.1817 31.7821 23.1229C30.978 25.0641 29.7994 26.828 28.3137 28.3137C26.828 29.7994 25.0641 30.978 23.1229 31.7821C21.1817 32.5861 19.1012 33 17 33Z" stroke="#FAFAFA" stroke-miterlimit="10"/>
<path d="M17.004 7.48297C15.121 7.48297 13.2802 8.04137 11.7145 9.08755C10.1487 10.1337 8.92841 11.6207 8.20779 13.3604C7.48716 15.1002 7.29861 17.0145 7.66598 18.8614C8.03335 20.7083 8.94014 22.4048 10.2717 23.7363C11.6032 25.0679 13.2997 25.9747 15.1466 26.342C16.9935 26.7094 18.9078 26.5209 20.6476 25.8002C22.3873 25.0796 23.8743 23.8593 24.9205 22.2936C25.9666 20.7278 26.525 18.8871 26.525 17.004C26.5252 15.7536 26.279 14.5155 25.8006 13.3603C25.3221 12.2051 24.6208 11.1554 23.7367 10.2713C22.8526 9.38718 21.8029 8.68587 20.6477 8.20744C19.4925 7.72901 18.2544 7.48284 17.004 7.48297ZM17.004 9.13897C18.7407 9.13943 20.4278 9.71822 21.799 10.784C20.7551 12.0832 19.3916 13.0891 17.842 13.703C17.0219 12.202 16.0973 10.7604 15.075 9.38897C15.705 9.22469 16.353 9.13937 17.004 9.13497V9.13897ZM13.457 9.99397C14.4941 11.3474 15.4319 12.7741 16.263 14.263C14.0178 14.8718 11.6992 15.1669 9.37304 15.14C9.64309 14.0389 10.1472 13.009 10.8511 12.1203C11.555 11.2316 12.4421 10.505 13.452 9.98997L13.457 9.99397ZM9.14004 17.003C9.14004 16.936 9.14903 16.869 9.15003 16.803C11.8188 16.8509 14.4796 16.4969 17.043 15.753C17.2284 16.1296 17.4057 16.5083 17.575 16.889C14.8347 17.7721 12.4931 19.5923 10.961 22.03C9.78068 20.6194 9.13459 18.8383 9.13604 16.999L9.14004 17.003ZM17.004 24.869C15.2539 24.8692 13.5544 24.2819 12.178 23.201C13.5239 20.9138 15.6726 19.2092 18.206 18.419C18.9402 20.3337 19.4832 22.3164 19.827 24.338C18.9266 24.6862 17.9695 24.8648 17.004 24.865V24.869ZM21.37 23.541C21.0223 21.6762 20.5128 19.8452 19.847 18.069C21.4845 17.8641 23.1439 17.9168 24.765 18.225C24.5955 19.297 24.2061 20.3223 23.6211 21.2365C23.0361 22.1506 22.2684 22.9339 21.366 23.537L21.37 23.541ZM19.204 16.498C19.01 16.051 18.81 15.606 18.595 15.165C20.3054 14.4635 21.8166 13.3514 22.995 11.927C24.0967 13.2282 24.7435 14.8536 24.837 16.556C22.9757 16.2237 21.0719 16.2041 19.204 16.498Z" fill="#FAFAFA"/>
</svg>
