<svg width="34" height="34" viewBox="0 0 34 34" fill="none" xmlns="http://www.w3.org/2000/svg">
<path d="M17 33C12.7565 33 8.68689 31.3143 5.68631 28.3137C2.68573 25.3131 1 21.2435 1 17C1 12.7565 2.68573 8.68689 5.68631 5.68631C8.68689 2.68573 12.7565 1 17 1C21.2435 1 25.3131 2.68573 28.3137 5.68631C31.3143 8.68689 33 12.7565 33 17C33 21.2435 31.3143 25.3131 28.3137 28.3137C25.3131 31.3143 21.2435 33 17 33Z" stroke="#FAFAFA" stroke-miterlimit="10"/>
<path d="M13.107 13.829H10.171V23.315H13.107V13.829Z" fill="#FAFAFA"/>
<path d="M11.625 12.587C11.9717 12.5898 12.3114 12.4895 12.601 12.299C12.8906 12.1084 13.1171 11.8361 13.2517 11.5167C13.3863 11.1972 13.423 10.845 13.3572 10.5046C13.2913 10.1643 13.1259 9.85111 12.8818 9.60492C12.6377 9.35874 12.326 9.19061 11.9863 9.12183C11.6465 9.05305 11.2939 9.08672 10.9733 9.2186C10.6527 9.35048 10.3785 9.5746 10.1855 9.86255C9.99243 10.1505 9.88926 10.4893 9.88905 10.836C9.88719 11.2983 10.069 11.7425 10.3945 12.0709C10.7201 12.3992 11.1627 12.5849 11.625 12.587Z" fill="#FAFAFA"/>
<path d="M17.8011 18.334C17.8011 17.001 18.4151 16.206 19.5901 16.206C20.6701 16.206 21.1901 16.968 21.1901 18.334V23.313H24.1121V17.313C24.1121 14.772 22.6721 13.544 20.6611 13.544C20.0899 13.5362 19.5263 13.6766 19.0255 13.9514C18.5246 14.2262 18.1035 14.626 17.8031 15.112V13.834H14.9861V23.313H17.8031C17.8031 23.313 17.8011 19.796 17.8011 18.334Z" fill="#FAFAFA"/>
</svg>
