<svg width="34" height="34" viewBox="0 0 34 34" fill="none" xmlns="http://www.w3.org/2000/svg">
<path d="M17 33C12.7565 33 8.68686 31.3143 5.68628 28.3137C2.6857 25.3131 1 21.2435 1 17C1 12.7565 2.6857 8.68687 5.68628 5.68629C8.68686 2.68571 12.7565 1 17 1C19.1012 1 21.1817 1.41385 23.1229 2.21793C25.0641 3.022 26.828 4.20055 28.3137 5.68629C29.7994 7.17203 30.978 8.93585 31.7821 10.8771C32.5861 12.8183 33 14.8988 33 17C33 19.1011 32.5861 21.1817 31.7821 23.1229C30.978 25.0641 29.7994 26.828 28.3137 28.3137C26.828 29.7994 25.0641 30.978 23.1229 31.7821C21.1817 32.5861 19.1012 33 17 33Z" stroke="#FAFAFA" stroke-miterlimit="10"/>
<path d="M8.539 9.50195L14.739 17.792L8.5 24.531H9.9L15.363 18.631L19.777 24.531H24.556L18.01 15.774L23.817 9.50195H22.417L17.382 14.935L13.318 9.50195H8.539ZM10.6 10.535H12.8L22.494 23.496H20.3L10.6 10.535Z" fill="#FAFAFA"/>
</svg>
