<svg width="34" height="34" viewBox="0 0 34 34" fill="none" xmlns="http://www.w3.org/2000/svg">
<path d="M17 33C12.7565 33 8.68686 31.3143 5.68628 28.3137C2.6857 25.3131 1 21.2435 1 17C1 12.7565 2.6857 8.68688 5.68628 5.68629C8.68686 2.68571 12.7565 1 17 1C19.1012 1 21.1817 1.41385 23.1229 2.21793C25.0641 3.022 26.828 4.20056 28.3137 5.68629C29.7994 7.17203 30.978 8.93587 31.7821 10.8771C32.5861 12.8183 33 14.8988 33 17C33 19.1012 32.5861 21.1817 31.7821 23.1229C30.978 25.0641 29.7994 26.828 28.3137 28.3137C26.828 29.7994 25.0641 30.978 23.1229 31.7821C21.1817 32.5861 19.1012 33 17 33Z" stroke="#FAFAFA" stroke-miterlimit="10"/>
<path d="M14.832 25.553H18.296V16.928H20.712L20.97 14.04H18.296V12.395C18.296 11.714 18.433 11.445 19.096 11.445H20.971V8.44501H18.571C15.994 8.44501 14.831 9.57401 14.831 11.734V14.034H13.031V16.958H14.831L14.832 25.553Z" fill="#FAFAFA"/>
</svg>
