<svg xmlns="http://www.w3.org/2000/svg" version="1.1" xmlns:xlink="http://www.w3.org/1999/xlink" xmlns:svgjs="http://svgjs.dev/svgjs" width="1024" height="1024"><svg width="1024" height="1024" viewBox="0 0 1024 1024" fill="none" xmlns="http://www.w3.org/2000/svg">
<path d="M620.759 778.606V904.463L511.967 967.036V841.89L620.759 778.606Z" fill="#CD182C"></path>
<path d="M511.967 841.271V966.417L403.175 903.844V777.987L511.967 841.271Z" fill="#2B2B2B"></path>
<path d="M620.758 778.606L511.967 841.89L403.175 778.606L511.967 716.033L620.758 778.606Z" fill="#FAFAFA"></path>
<path d="M967.037 418.435V543.581L858.245 606.865V481.008L967.037 418.435Z" fill="#CD182C"></path>
<path d="M858.956 481.115V606.972L750.164 543.688V418.542L858.956 481.115Z" fill="#2B2B2B"></path>
<path d="M967.036 418.435L858.245 481.008L749.453 418.435L858.245 355.151L967.036 418.435Z" fill="#FAFAFA"></path>
<path d="M793.894 503.463V629.32L685.102 691.893V566.036L793.894 503.463Z" fill="#CD182C"></path>
<path d="M685.102 566.128V691.985L576.31 629.412V503.555L685.102 566.128Z" fill="#2B2B2B"></path>
<path d="M793.893 503.463L685.102 566.036L576.31 503.463L685.102 440.89L793.893 503.463Z" fill="#FAFAFA"></path>
<path d="M620.76 588.477V714.334L511.968 776.907V651.761L620.76 588.477Z" fill="#CD182C"></path>
<path d="M511.968 651.853V776.999L403.887 714.426V588.569L511.968 651.853Z" fill="#2B2B2B"></path>
<path d="M620.759 588.477L511.968 651.761L403.887 588.477L511.968 525.904L620.759 588.477Z" fill="#FAFAFA"></path>
<path d="M447.61 674.145V799.291L338.818 861.864V736.718L447.61 674.145Z" fill="#CD182C"></path>
<path d="M338.818 736.825V861.971L230.026 799.398V674.252L338.818 736.825Z" fill="#2B2B2B"></path>
<path d="M447.609 674.145L338.818 736.718L230.026 674.145L338.818 610.861L447.609 674.145Z" fill="#FAFAFA"></path>
<path d="M274.468 759.215V884.361L165.676 947.645V821.788L274.468 759.215Z" fill="#CD182C"></path>
<path d="M165.676 821.88V947.737L56.884 884.453V759.307L165.676 821.88Z" fill="#2B2B2B"></path>
<path d="M274.467 759.215L165.676 821.788L56.884 759.215L165.676 696.642L274.467 759.215Z" fill="#FAFAFA"></path>
<path d="M967.037 138.847V263.993L858.245 327.277V202.131L967.037 138.847Z" fill="#CD182C"></path>
<path d="M858.956 201.527V327.384L750.164 264.1V138.954L858.956 201.527Z" fill="#2B2B2B"></path>
<path d="M967.036 138.847L858.956 202.131L750.164 139.558L858.956 76.274L967.036 138.847Z" fill="#FAFAFA"></path>
<path d="M793.894 224.629V350.486L685.102 412.348V287.202L793.894 224.629Z" fill="#CD182C"></path>
<path d="M685.102 287.294V413.151L576.31 350.578V224.01L685.102 287.294Z" fill="#2B2B2B"></path>
<path d="M793.893 224.629L685.102 287.202L576.31 224.629L685.102 162.056L793.893 224.629Z" fill="#FAFAFA"></path>
<path d="M620.759 309.593V435.45L511.967 498.023V372.166L620.759 309.593Z" fill="#CD182C"></path>
<path d="M511.967 372.258V497.404L403.175 434.831V309.685L511.967 372.258Z" fill="#2B2B2B"></path>
<path d="M620.758 309.593L511.967 372.877L403.175 309.593L511.967 247.02L620.758 309.593Z" fill="#FAFAFA"></path>
<path d="M447.61 395.311V520.457L338.818 583.03V457.884L447.61 395.311Z" fill="#CD182C"></path>
<path d="M338.818 457.28V582.426L230.026 519.853V394.707L338.818 457.28Z" fill="#2B2B2B"></path>
<path d="M447.609 395.311L338.818 457.884L230.026 395.311L338.818 332.027L447.609 395.311Z" fill="#FAFAFA"></path>
<path d="M274.468 480.339V605.485L165.676 668.769V542.912L274.468 480.339Z" fill="#CD182C"></path>
<path d="M165.676 543.004V668.861L56.884 605.577V480.431L165.676 543.004Z" fill="#2B2B2B"></path>
<path d="M274.467 480.339L165.676 542.912L56.884 480.339L165.676 417.766L274.467 480.339Z" fill="#FAFAFA"></path>
<path d="M620.759 119.457V245.314L511.967 307.887V182.741L620.759 119.457Z" fill="#CD182C"></path>
<path d="M511.967 182.833V307.979L403.175 245.406V119.549L511.967 182.833Z" fill="#2B2B2B"></path>
<path d="M620.758 119.457L511.967 182.741L403.175 119.457L511.967 56.884L620.758 119.457Z" fill="#FAFAFA"></path>
</svg><style>@media (prefers-color-scheme: light) { :root { filter: none; } }
@media (prefers-color-scheme: dark) { :root { filter: none; } }
</style></svg>